<svg xmlns="http://www.w3.org/2000/svg" width="1024" height="1024" viewBox="0 0 1024 1024">
<g>
<path d="M 439.50 827.57 C428.89,829.09 375.08,830.37 364.00,829.36 C283.60,822.04 219.70,790.23 207.37,751.38 L 205.00 743.92 L 205.00 522.07 C205.00,303.39 205.03,300.12 206.99,293.86 C209.83,284.78 214.06,278.00 222.25,269.37 C237.18,253.65 264.21,239.36 296.62,230.04 L 303.74 227.99 L 304.39 222.25 C305.84,209.47 314.38,198.66 329.11,191.00 C347.61,181.38 367.99,176.91 393.50,176.89 C418.89,176.87 436.80,180.49 455.00,189.33 C471.09,197.14 482.00,210.95 482.00,223.50 C482.00,227.86 482.06,227.94 486.25,229.03 C497.76,232.04 515.74,238.67 526.61,243.91 C554.52,257.37 572.34,274.04 578.22,292.21 C579.75,296.93 580.38,302.18 580.75,313.19 L 581.24 327.89 L 586.81 328.58 C589.87,328.96 605.00,329.01 620.43,328.69 C651.04,328.06 667.88,326.29 694.50,320.93 C737.71,312.22 766.06,302.04 814.71,277.75 C839.29,265.48 841.28,264.67 846.71,264.67 C856.24,264.69 863.73,269.75 867.92,279.00 C869.92,283.42 869.96,285.09 869.98,377.54 C869.98,381.14 869.98,384.60 869.98,387.95 C870.01,465.63 870.01,475.88 866.35,484.59 C865.64,486.29 864.78,487.93 863.77,490.00 C858.82,500.06 847.23,511.00 833.59,518.50 C820.59,525.65 814.92,530.93 812.07,538.55 C810.09,543.85 810.00,546.02 809.99,591.29 C809.99,618.76 809.55,641.22 808.96,645.00 C806.69,659.30 797.40,672.82 783.70,681.74 C765.92,693.31 733.60,705.14 701.00,712.02 C673.21,717.88 656.79,719.40 621.00,719.43 C603.12,719.44 586.87,719.12 584.88,718.71 L 581.26 717.96 L 580.73 731.23 C579.84,753.28 575.78,763.05 561.50,777.55 C537.33,802.07 494.34,819.70 439.50,827.57 ZM 366.00 811.85 C400.71,814.74 438.96,811.59 472.68,803.08 C515.42,792.29 549.48,771.76 559.57,750.71 L 563.00 743.56 L 563.00 348.59 L 559.25 352.14 C554.19,356.92 544.80,363.86 537.50,368.21 C509.25,385.03 473.98,395.73 431.23,400.44 C413.06,402.44 374.26,402.49 356.00,400.53 C302.57,394.79 256.61,378.00 229.24,354.22 L 221.98 347.91 L 222.24 545.72 L 222.50 743.54 L 225.92 750.52 C240.31,779.87 301.00,806.44 366.00,811.85 ZM 587.75 701.26 C591.46,701.45 605.80,701.70 619.61,701.80 C663.68,702.15 699.61,696.89 735.00,684.93 C767.81,673.84 782.97,664.48 789.15,651.50 L 792.00 645.50 L 792.02 598.00 C792.03,571.51 792.49,547.42 793.05,543.53 C794.91,530.63 802.59,518.04 812.76,511.20 C815.92,509.08 822.10,505.38 826.50,502.98 C836.44,497.56 845.60,488.64 849.57,480.50 L 852.50 474.50 L 852.77 380.72 L 853.04 286.95 L 850.57 284.47 C849.20,283.11 847.20,282.00 846.11,282.00 C845.01,282.00 832.51,287.81 818.31,294.90 C763.71,322.20 719.86,336.17 667.36,342.99 C647.83,345.52 617.63,346.92 596.75,346.24 L 581.00 345.73 L 581.00 700.91 ZM 366.00 383.96 C379.72,385.26 419.30,384.43 434.00,382.54 C474.91,377.27 510.54,365.39 535.50,348.69 C544.47,342.69 556.14,330.46 559.57,323.46 C561.92,318.69 562.57,315.88 562.85,309.35 C563.17,301.93 562.92,300.62 560.13,294.78 C554.15,282.24 541.36,271.20 521.01,261.02 C510.43,255.72 487.11,247.00 483.52,247.00 C482.19,247.00 482.00,250.95 482.00,278.32 C482.00,313.17 481.54,316.52 475.68,324.20 C466.09,336.77 448.74,345.79 423.87,351.15 C408.57,354.44 379.34,354.45 363.00,351.16 C334.80,345.49 314.29,333.40 307.20,318.27 L 304.50 312.50 L 304.20 279.75 C304.01,259.52 303.53,247.00 302.93,247.00 C299.55,247.00 277.42,255.18 266.50,260.46 C237.59,274.45 222.50,290.93 222.50,308.50 C222.50,318.27 226.70,326.73 236.40,336.49 C260.53,360.78 309.10,378.57 366.00,383.96 ZM 483.50 656.66 C476.78,659.85 474.77,660.33 466.68,660.64 C460.67,660.87 456.05,660.52 453.29,659.61 C439.31,655.03 429.77,643.85 426.44,628.13 C424.48,618.86 424.51,582.96 426.50,573.59 C431.90,548.10 453.89,530.51 478.19,532.25 C493.57,533.35 505.12,543.83 509.50,560.68 C511.34,567.72 511.64,613.82 509.90,622.20 C506.79,637.25 496.73,650.38 483.50,656.66 ZM 366.50 333.97 C378.26,336.44 404.80,336.69 417.61,334.45 C429.26,332.42 442.98,327.77 450.15,323.41 C457.07,319.20 463.52,312.17 464.38,307.87 C465.31,303.20 465.05,256.00 464.09,256.00 C463.64,256.00 460.17,257.78 456.38,259.96 C448.88,264.27 435.78,268.93 424.00,271.48 C412.14,274.04 383.96,274.61 370.14,272.58 C353.43,270.11 333.98,263.40 324.99,256.99 L 322.00 254.86 L 322.00 282.05 C322.00,304.25 322.00,310.15 324.77,314.09 C325.78,315.51 327.15,316.69 329.02,318.28 C337.14,325.23 349.50,330.41 366.50,333.97 ZM 378.50 256.38 C384.36,257.28 412.61,256.01 419.98,254.53 C442.59,249.95 459.47,240.20 463.63,229.31 C465.16,225.30 465.16,224.70 463.58,220.58 C459.05,208.72 439.16,198.81 412.08,194.93 C400.23,193.23 377.16,194.24 364.50,197.01 C346.15,201.02 330.70,208.50 325.09,216.10 C321.60,220.81 321.12,227.83 323.96,232.44 C330.87,243.62 350.00,252.02 378.50,256.38 ZM 389.37 662.69 C384.55,664.90 381.86,665.40 373.53,665.65 C357.38,666.14 347.17,662.34 338.18,652.51 C334.28,648.24 332.55,645.29 330.99,640.23 C327.81,629.93 330.08,625.00 338.00,625.00 C343.16,625.00 345.61,627.19 347.01,633.04 C348.46,639.08 351.75,643.29 357.38,646.29 C360.74,648.08 363.15,648.49 370.50,648.49 C378.25,648.50 380.12,648.15 383.95,646.00 C392.18,641.37 394.93,631.48 390.14,623.73 C387.14,618.88 383.47,616.78 369.75,612.04 C346.20,603.92 339.26,599.34 333.83,588.31 C330.84,582.24 330.50,580.66 330.50,573.00 C330.50,565.36 330.85,563.75 333.79,557.77 C339.42,546.34 349.20,540.25 363.50,539.27 C381.33,538.04 397.31,545.76 403.62,558.65 C409.27,570.20 406.79,578.00 397.46,578.00 C393.99,578.00 392.74,577.48 391.07,575.37 C389.93,573.92 389.00,571.68 389.00,570.40 C389.00,567.21 383.35,561.03 378.50,558.93 C371.99,556.11 366.68,555.66 360.64,557.42 C345.21,561.90 343.58,580.64 357.98,587.99 C360.03,589.04 366.89,591.68 373.22,593.86 C393.54,600.87 401.32,606.12 406.81,616.50 C409.15,620.93 409.45,622.64 409.47,631.50 C409.49,641.00 409.33,641.81 406.08,647.80 C402.24,654.89 397.84,658.81 389.37,662.69 ZM 459.99 643.11 C463.66,644.30 471.87,643.20 476.74,640.86 C482.32,638.19 488.39,631.16 491.18,624.15 C493.23,618.99 493.45,616.49 493.79,595.28 C494.19,570.17 493.49,564.95 488.78,558.03 C485.00,552.48 481.68,550.64 474.61,550.19 C469.26,549.85 467.25,550.23 462.11,552.53 C452.86,556.68 447.19,563.84 443.91,575.50 C441.70,583.33 442.01,622.00 444.32,627.93 C447.49,636.09 452.11,640.56 459.99,643.11 ZM 302.34 656.89 C297.35,659.16 291.86,656.91 290.11,651.87 C289.35,649.70 289.00,630.96 289.00,592.41 L 289.00 536.11 L 291.37 533.36 C294.86,529.30 300.26,529.49 304.13,533.82 L 307.00 537.03 L 307.00 593.97 C307.00,633.57 306.66,651.65 305.89,653.34 C305.28,654.68 303.68,656.28 302.34,656.89 ZM 634.53 680.81 C632.92,681.54 627.17,681.98 619.70,681.94 C610.39,681.89 605.48,681.89 602.89,679.44 C600.00,676.71 600.00,670.92 600.00,658.60 L 600.00 640.85 L 605.89 634.95 L 619.70 635.51 C627.29,635.82 634.33,636.32 635.34,636.63 C638.90,637.72 640.00,643.01 640.00,659.02 C640.00,675.52 639.21,678.67 634.53,680.81 ZM 636.69 409.59 C634.02,411.89 633.25,412.00 620.19,411.97 C606.53,411.94 603.85,411.39 601.28,408.07 C600.43,406.98 600.05,401.12 600.03,388.70 C600.00,371.12 600.03,370.88 602.45,368.45 C604.83,366.07 605.35,366.00 619.40,366.00 C633.27,366.00 634.01,366.10 636.69,368.41 L 639.50 370.83 L 639.50 407.17 ZM 690.41 676.06 L 690.01 676.13 C679.93,677.95 674.69,678.90 671.96,676.71 C669.00,674.33 669.00,668.26 669.00,655.61 L 669.00 655.14 C669.00,654.05 669.00,653.01 669.00,652.02 C668.98,642.00 668.97,637.30 671.30,634.70 C673.59,632.14 678.15,631.61 687.19,630.05 C700.20,627.81 701.02,627.78 703.49,629.40 C704.92,630.34 706.52,632.24 707.04,633.62 C708.29,636.88 708.29,665.12 707.04,668.38 C705.54,672.33 701.98,673.98 690.41,676.06 ZM 689.12 405.90 C688.48,406.01 687.87,406.11 687.29,406.21 C677.73,407.84 675.42,408.23 673.70,407.40 C673.05,407.09 672.48,406.59 671.63,405.93 L 669.00 403.85 L 669.00 385.86 C669.00,367.52 669.46,364.90 672.97,363.01 C674.98,361.94 696.55,358.00 700.43,358.00 C701.65,358.00 703.74,359.16 705.08,360.58 C707.41,363.06 707.51,363.79 707.82,379.50 C708.08,392.87 707.85,396.40 706.56,398.89 C704.41,403.05 703.30,403.49 689.12,405.90 ZM 757.72 656.87 C743.16,662.56 741.97,662.73 738.41,659.68 L 735.50 657.18 L 735.18 640.63 C735.17,640.08 735.16,639.54 735.15,639.02 C734.93,627.84 734.83,622.75 737.22,619.47 C739.33,616.58 743.37,615.10 750.98,612.08 C758.04,609.29 764.78,607.00 765.95,607.00 C767.13,607.00 769.20,608.10 770.55,609.45 C772.97,611.88 773.00,612.13 773.00,630.00 C773.00,630.82 773.00,631.61 773.00,632.37 C773.01,642.49 773.02,647.09 770.81,650.04 C768.82,652.71 765.00,654.02 757.72,656.87 ZM 755.94 388.85 C749.10,391.13 742.96,393.00 742.30,393.00 C741.65,393.00 739.85,391.91 738.31,390.59 L 735.50 388.17 L 735.50 370.11 C735.50,352.15 735.51,352.03 738.00,349.62 C740.44,347.26 762.41,339.00 766.25,339.00 C767.26,339.00 769.20,340.10 770.55,341.45 C772.97,343.88 773.00,344.13 773.00,362.00 C773.00,362.91 773.00,363.78 773.00,364.61 C773.02,374.47 773.02,379.10 770.79,382.01 C768.63,384.84 764.36,386.05 755.94,388.85 ZM 820.44 361.90 C800.23,372.52 798.20,370.64 798.05,341.22 C797.97,325.90 798.32,325.36 812.92,318.04 C819.55,314.72 826.12,312.00 827.53,312.00 C828.94,312.00 831.20,313.10 832.55,314.45 C834.95,316.86 835.00,317.22 835.00,333.50 C835.00,346.18 834.65,350.77 833.52,352.95 C832.45,355.02 828.85,357.49 820.44,361.90 ZM 612.00 648.00 L 612.00 669.00 L 627.00 669.00 L 627.00 648.00 ZM 612.00 379.00 L 612.00 399.00 L 627.00 399.00 L 627.00 379.00 ZM 681.00 644.16 L 681.00 664.95 L 684.25 664.35 C686.04,664.03 689.08,663.46 691.00,663.09 L 694.50 662.41 L 695.07 641.81 L 690.79 642.46 C688.43,642.82 685.26,643.34 683.75,643.63 ZM 681.00 384.17 L 681.00 394.23 L 686.66 393.52 C690.70,393.02 692.79,392.87 693.86,391.75 C695.01,390.55 695.01,388.25 695.00,383.22 C695.00,382.77 695.00,382.29 695.00,381.79 L 695.00 371.80 L 688.75 372.52 C685.31,372.91 682.16,373.43 681.75,373.67 C681.34,373.92 681.00,378.64 681.00,384.17 ZM 748.21 367.96 C747.99,376.01 748.21,378.14 749.21,377.77 C749.92,377.51 752.86,376.51 755.75,375.57 L 761.00 373.84 L 761.00 363.92 C761.00,363.50 761.00,363.09 761.00,362.70 C761.01,357.57 761.01,355.22 759.94,354.53 C759.05,353.95 757.40,354.53 754.36,355.61 C754.09,355.71 753.80,355.81 753.50,355.91 L 748.50 357.67 ZM 748.22 636.81 C748.06,642.41 748.09,647.00 748.30,647.00 C748.50,647.00 751.32,645.92 754.58,644.59 L 760.50 642.19 L 760.78 632.09 C760.94,626.54 760.93,622.00 760.75,622.00 C760.57,622.00 757.74,623.04 754.46,624.31 L 748.50 626.62 ZM 811.00 342.52 C811.00,347.73 811.34,351.99 811.75,351.98 C812.16,351.96 814.75,350.72 817.50,349.22 L 822.50 346.49 L 822.65 337.24 C822.74,332.07 822.39,328.00 821.87,328.00 C821.35,328.00 818.70,329.13 815.97,330.52 L 811.00 333.03 Z" fill="rgb(8,7,7)"/>
<path d="M 0.00 512.00 L 0.00 0.00 L 512.00 0.00 L 1024.00 0.00 L 1024.00 512.00 L 1024.00 1024.00 L 512.00 1024.00 L 0.00 1024.00 L 0.00 512.00 ZM 439.50 827.57 C494.34,819.70 537.33,802.07 561.50,777.55 C575.78,763.05 579.84,753.28 580.73,731.23 L 581.26 717.96 L 584.88 718.71 C586.87,719.12 603.12,719.44 621.00,719.43 C656.79,719.40 673.21,717.88 701.00,712.02 C733.60,705.14 765.92,693.31 783.70,681.74 C797.40,672.82 806.69,659.30 808.96,645.00 C809.55,641.22 809.99,618.76 809.99,591.29 C810.00,546.02 810.09,543.85 812.07,538.55 C814.92,530.93 820.59,525.65 833.59,518.50 C847.23,511.00 858.82,500.06 863.77,490.00 C870.23,476.86 870.00,481.05 869.98,377.54 C869.96,285.09 869.92,283.42 867.92,279.00 C863.73,269.75 856.24,264.69 846.71,264.67 C841.28,264.67 839.29,265.48 814.71,277.75 C766.06,302.04 737.71,312.22 694.50,320.93 C667.88,326.29 651.04,328.06 620.43,328.69 C605.00,329.01 589.87,328.96 586.81,328.58 L 581.24 327.89 L 580.75 313.19 C580.38,302.18 579.75,296.93 578.22,292.21 C572.34,274.04 554.52,257.37 526.61,243.91 C515.74,238.67 497.76,232.04 486.25,229.03 C482.06,227.94 482.00,227.86 482.00,223.50 C482.00,210.95 471.09,197.14 455.00,189.33 C436.80,180.49 418.89,176.87 393.50,176.89 C367.99,176.91 347.61,181.38 329.11,191.00 C314.38,198.66 305.84,209.47 304.39,222.25 L 303.74 227.99 L 296.62 230.04 C264.21,239.36 237.18,253.65 222.25,269.37 C214.06,278.00 209.83,284.78 206.99,293.86 C205.03,300.12 205.00,303.39 205.00,522.07 L 205.00 743.92 L 207.37 751.38 C219.70,790.23 283.60,822.04 364.00,829.36 C375.08,830.37 428.89,829.09 439.50,827.57 ZM 366.00 811.85 C301.00,806.44 240.31,779.87 225.92,750.52 L 222.50 743.54 L 222.24 545.72 L 221.98 347.91 L 229.24 354.22 C256.61,378.00 302.57,394.79 356.00,400.53 C374.26,402.49 413.06,402.44 431.23,400.44 C473.98,395.73 509.25,385.03 537.50,368.21 C544.80,363.86 554.19,356.92 559.25,352.14 L 563.00 348.59 L 563.00 546.08 L 563.00 743.56 L 559.57 750.71 C549.48,771.76 515.42,792.29 472.68,803.08 C438.96,811.59 400.71,814.74 366.00,811.85 ZM 389.37 662.69 C397.84,658.81 402.24,654.89 406.08,647.80 C409.33,641.81 409.49,641.00 409.47,631.50 C409.45,622.64 409.15,620.93 406.81,616.50 C401.32,606.12 393.54,600.87 373.22,593.86 C366.89,591.68 360.03,589.04 357.98,587.99 C343.58,580.64 345.21,561.90 360.64,557.42 C366.68,555.66 371.99,556.11 378.50,558.93 C383.35,561.03 389.00,567.21 389.00,570.40 C389.00,571.68 389.93,573.92 391.07,575.37 C392.74,577.48 393.99,578.00 397.46,578.00 C406.79,578.00 409.27,570.20 403.62,558.65 C397.31,545.76 381.33,538.04 363.50,539.27 C349.20,540.25 339.42,546.34 333.79,557.77 C330.85,563.75 330.50,565.36 330.50,573.00 C330.50,580.66 330.84,582.24 333.83,588.31 C339.26,599.34 346.20,603.92 369.75,612.04 C383.47,616.78 387.14,618.88 390.14,623.73 C394.93,631.48 392.18,641.37 383.95,646.00 C380.12,648.15 378.25,648.50 370.50,648.49 C363.15,648.49 360.74,648.08 357.38,646.29 C351.75,643.29 348.46,639.08 347.01,633.04 C345.61,627.19 343.16,625.00 338.00,625.00 C330.08,625.00 327.81,629.93 330.99,640.23 C332.55,645.29 334.28,648.24 338.18,652.51 C347.17,662.34 357.38,666.14 373.53,665.65 C381.86,665.40 384.55,664.90 389.37,662.69 ZM 483.50 656.66 C496.73,650.38 506.79,637.25 509.90,622.20 C511.64,613.82 511.34,567.72 509.50,560.68 C505.12,543.83 493.57,533.35 478.19,532.25 C453.89,530.51 431.90,548.10 426.50,573.59 C424.51,582.96 424.48,618.86 426.44,628.13 C429.77,643.85 439.31,655.03 453.29,659.61 C456.05,660.52 460.67,660.87 466.68,660.64 C474.77,660.33 476.78,659.85 483.50,656.66 ZM 302.34 656.89 C303.68,656.28 305.28,654.68 305.89,653.34 C306.66,651.65 307.00,633.57 307.00,593.97 L 307.00 537.03 L 304.13 533.82 C300.26,529.49 294.86,529.30 291.37,533.36 L 289.00 536.11 L 289.00 592.41 C289.00,630.96 289.35,649.70 290.11,651.87 C291.86,656.91 297.35,659.16 302.34,656.89 ZM 587.75 701.26 L 581.00 700.91 L 581.00 523.32 L 581.00 345.73 L 596.75 346.24 C617.63,346.92 647.83,345.52 667.36,342.99 C719.86,336.17 763.71,322.20 818.31,294.90 C832.51,287.81 845.01,282.00 846.11,282.00 C847.20,282.00 849.20,283.11 850.57,284.47 L 853.04 286.95 L 852.77 380.72 L 852.50 474.50 L 849.57 480.50 C845.60,488.64 836.44,497.56 826.50,502.98 C822.10,505.38 815.92,509.08 812.76,511.20 C802.59,518.04 794.91,530.63 793.05,543.53 C792.49,547.42 792.03,571.51 792.02,598.00 L 792.00 645.50 L 789.15 651.50 C782.97,664.48 767.81,673.84 735.00,684.93 C699.61,696.89 663.68,702.15 619.61,701.80 C605.80,701.70 591.46,701.45 587.75,701.26 ZM 634.53 680.81 C639.21,678.67 640.00,675.52 640.00,659.02 C640.00,643.01 638.90,637.72 635.34,636.63 C634.33,636.32 627.29,635.82 619.70,635.51 L 605.89 634.95 L 602.95 637.90 L 600.00 640.85 L 600.00 658.20 C600.00,681.97 599.89,681.83 619.70,681.94 C627.17,681.98 632.92,681.54 634.53,680.81 ZM 690.41 676.06 C701.98,673.98 705.54,672.33 707.04,668.38 C708.29,665.12 708.29,636.88 707.04,633.62 C706.52,632.24 704.92,630.34 703.49,629.40 C701.02,627.78 700.20,627.81 687.19,630.05 C668.05,633.35 669.00,632.04 669.00,655.14 C669.00,680.08 668.86,679.95 690.41,676.06 ZM 757.72 656.87 C773.62,650.65 773.00,651.75 773.00,630.00 C773.00,612.13 772.97,611.88 770.55,609.45 C769.20,608.10 767.13,607.00 765.95,607.00 C764.78,607.00 758.04,609.29 750.98,612.08 C734.35,618.67 734.75,617.94 735.18,640.63 L 735.50 657.18 L 738.41 659.68 C741.97,662.73 743.16,662.56 757.72,656.87 ZM 636.69 409.59 L 639.50 407.17 L 639.50 389.00 L 639.50 370.83 L 636.69 368.41 C634.01,366.10 633.27,366.00 619.40,366.00 C605.35,366.00 604.83,366.07 602.45,368.45 C600.03,370.88 600.00,371.12 600.03,388.70 C600.05,401.12 600.43,406.98 601.28,408.07 C603.85,411.39 606.53,411.94 620.19,411.97 C633.25,412.00 634.02,411.89 636.69,409.59 ZM 689.12 405.90 C703.30,403.49 704.41,403.05 706.56,398.89 C707.85,396.40 708.08,392.87 707.82,379.50 C707.51,363.79 707.41,363.06 705.08,360.58 C703.74,359.16 701.65,358.00 700.43,358.00 C696.55,358.00 674.98,361.94 672.97,363.01 C669.46,364.90 669.00,367.52 669.00,385.86 L 669.00 403.85 L 671.63 405.93 C674.85,408.46 674.04,408.46 689.12,405.90 ZM 755.94 388.85 C773.76,382.91 773.00,384.12 773.00,362.00 C773.00,344.13 772.97,343.88 770.55,341.45 C769.20,340.10 767.26,339.00 766.25,339.00 C762.41,339.00 740.44,347.26 738.00,349.62 C735.51,352.03 735.50,352.15 735.50,370.11 L 735.50 388.17 L 738.31 390.59 C739.85,391.91 741.65,393.00 742.30,393.00 C742.96,393.00 749.10,391.13 755.94,388.85 ZM 820.44 361.90 C828.85,357.49 832.45,355.02 833.52,352.95 C834.65,350.77 835.00,346.18 835.00,333.50 C835.00,317.22 834.95,316.86 832.55,314.45 C831.20,313.10 828.94,312.00 827.53,312.00 C826.12,312.00 819.55,314.72 812.92,318.04 C798.32,325.36 797.97,325.90 798.05,341.22 C798.20,370.64 800.23,372.52 820.44,361.90 ZM 366.00 383.96 C309.10,378.57 260.53,360.78 236.40,336.49 C226.70,326.73 222.50,318.27 222.50,308.50 C222.50,290.93 237.59,274.45 266.50,260.46 C277.42,255.18 299.55,247.00 302.93,247.00 C303.53,247.00 304.01,259.52 304.20,279.75 L 304.50 312.50 L 307.20 318.27 C314.29,333.40 334.80,345.49 363.00,351.16 C379.34,354.45 408.57,354.44 423.87,351.15 C448.74,345.79 466.09,336.77 475.68,324.20 C481.54,316.52 482.00,313.17 482.00,278.32 C482.00,250.95 482.19,247.00 483.52,247.00 C487.11,247.00 510.43,255.72 521.01,261.02 C541.36,271.20 554.15,282.24 560.13,294.78 C562.92,300.62 563.17,301.93 562.85,309.35 C562.57,315.88 561.92,318.69 559.57,323.46 C556.14,330.46 544.47,342.69 535.50,348.69 C510.54,365.39 474.91,377.27 434.00,382.54 C419.30,384.43 379.72,385.26 366.00,383.96 ZM 366.50 333.97 C349.50,330.41 337.14,325.23 329.02,318.28 C321.99,312.27 322.00,312.30 322.00,281.98 L 322.00 254.86 L 324.99 256.99 C333.98,263.40 353.43,270.11 370.14,272.58 C383.96,274.61 412.14,274.04 424.00,271.48 C435.78,268.93 448.88,264.27 456.38,259.96 C460.17,257.78 463.64,256.00 464.09,256.00 C465.05,256.00 465.31,303.20 464.38,307.87 C463.52,312.17 457.07,319.20 450.15,323.41 C442.98,327.77 429.26,332.42 417.61,334.45 C404.80,336.69 378.26,336.44 366.50,333.97 ZM 378.50 256.38 C350.00,252.02 330.87,243.62 323.96,232.44 C321.12,227.83 321.60,220.81 325.09,216.10 C330.70,208.50 346.15,201.02 364.50,197.01 C377.16,194.24 400.23,193.23 412.08,194.93 C439.16,198.81 459.05,208.72 463.58,220.58 C465.16,224.70 465.16,225.30 463.63,229.31 C459.47,240.20 442.59,249.95 419.98,254.53 C412.61,256.01 384.36,257.28 378.50,256.38 ZM 459.99 643.11 C452.11,640.56 447.49,636.09 444.32,627.93 C442.01,622.00 441.70,583.33 443.91,575.50 C447.19,563.84 452.86,556.68 462.11,552.53 C467.25,550.23 469.26,549.85 474.61,550.19 C481.68,550.64 485.00,552.48 488.78,558.03 C493.49,564.95 494.19,570.17 493.79,595.28 C493.45,616.49 493.23,618.99 491.18,624.15 C488.39,631.16 482.32,638.19 476.74,640.86 C471.87,643.20 463.66,644.30 459.99,643.11 ZM 612.00 658.50 L 612.00 648.00 L 619.50 648.00 L 627.00 648.00 L 627.00 658.50 L 627.00 669.00 L 619.50 669.00 L 612.00 669.00 L 612.00 658.50 ZM 681.00 654.55 L 681.00 644.16 L 683.75 643.63 C685.26,643.34 688.43,642.82 690.79,642.46 L 695.07 641.81 L 694.79 652.11 L 694.50 662.41 L 691.00 663.09 C689.08,663.46 686.04,664.03 684.25,664.35 L 681.00 664.95 L 681.00 654.55 ZM 748.22 636.81 L 748.50 626.62 L 754.46 624.31 C757.74,623.04 760.57,622.00 760.75,622.00 C760.93,622.00 760.94,626.54 760.78,632.09 L 760.50 642.19 L 754.58 644.59 C751.32,645.92 748.50,647.00 748.30,647.00 C748.09,647.00 748.06,642.41 748.22,636.81 ZM 612.00 389.00 L 612.00 379.00 L 619.50 379.00 L 627.00 379.00 L 627.00 389.00 L 627.00 399.00 L 619.50 399.00 L 612.00 399.00 L 612.00 389.00 ZM 681.00 384.17 C681.00,378.64 681.34,373.92 681.75,373.67 C682.16,373.43 685.31,372.91 688.75,372.52 L 695.00 371.80 L 695.00 381.79 C695.00,393.00 695.41,392.43 686.66,393.52 L 681.00 394.23 L 681.00 384.17 ZM 748.21 367.96 L 748.50 357.67 L 753.50 355.91 C761.31,353.17 761.00,352.84 761.00,363.92 L 761.00 373.84 L 755.75 375.57 C752.86,376.51 749.92,377.51 749.21,377.77 C748.21,378.14 747.99,376.01 748.21,367.96 ZM 811.00 342.52 L 811.00 333.03 L 815.97 330.52 C818.70,329.13 821.35,328.00 821.87,328.00 C822.39,328.00 822.74,332.07 822.65,337.24 L 822.50 346.49 L 817.50 349.22 C814.75,350.72 812.16,351.96 811.75,351.98 C811.34,351.99 811.00,347.73 811.00,342.52 Z" fill="rgb(253,253,253)"/>
</g>
</svg>