<svg xmlns="http://www.w3.org/2000/svg" width="1024" height="1024" viewBox="0 0 1024 1024">
<g>
<path d="M 735.27 726.17 L 729.04 729.00 L 627.27 728.96 C622.91,728.96 618.72,728.96 614.71,728.96 C529.46,728.93 522.26,728.93 517.98,725.39 C517.39,724.90 516.85,724.34 516.16,723.70 C511.94,719.75 511.00,716.66 511.00,706.70 C511.00,696.00 512.63,692.30 519.00,688.55 C522.44,686.53 523.96,686.49 614.00,686.00 L 705.50 685.50 L 709.51 682.89 C714.88,679.39 715.10,679.08 720.48,667.00 C723.06,661.22 727.00,652.67 729.25,648.00 C732.66,640.89 733.44,638.11 733.98,631.00 C734.68,621.94 735.60,619.45 740.20,614.15 C745.65,607.88 744.84,607.53 723.69,607.23 L 704.90 606.96 L 698.61 610.48 L 692.31 614.00 L 652.85 614.00 C619.70,614.00 613.07,613.77 611.44,612.53 C609.79,611.28 600.94,611.06 551.71,611.03 C497.23,611.00 493.71,611.11 490.21,612.87 C482.67,616.67 473.61,617.04 392.02,616.93 C324.25,616.83 313.15,616.61 310.63,615.31 C308.35,614.13 307.19,614.05 305.26,614.93 C303.90,615.55 297.22,616.33 290.40,616.68 L 278.02 617.31 L 276.26 620.90 C274.26,624.97 273.01,625.39 251.50,629.06 C240.46,630.95 232.72,631.20 154.64,632.19 C82.76,633.09 69.64,633.05 68.90,631.88 C68.42,631.12 68.02,623.50 68.02,614.95 C68.00,599.51 68.02,599.36 70.88,594.85 C74.65,588.91 75.67,588.25 101.50,575.02 C113.60,568.83 124.28,562.80 125.23,561.63 C129.28,556.63 126.58,552.74 110.36,540.22 C100.06,532.27 86.70,518.42 81.24,510.02 C70.82,494.03 65.98,477.20 66.02,457.12 C66.05,442.81 68.66,431.47 74.98,418.24 C83.50,400.41 94.36,387.88 113.96,373.29 C125.67,364.58 127.96,361.66 126.47,357.32 C125.63,354.88 122.07,352.80 100.29,342.00 C74.60,329.26 71.85,327.55 69.40,322.80 C67.33,318.81 67.41,292.73 69.49,291.01 C70.67,290.03 86.86,290.01 147.74,290.93 C220.99,292.04 240.74,292.82 248.86,294.94 C256.82,297.01 266.63,299.01 269.00,299.03 C272.41,299.07 275.29,301.44 276.58,305.29 L 277.67 308.50 L 289.58 309.27 C296.14,309.70 303.55,310.51 306.07,311.07 C309.21,311.77 311.49,311.76 313.38,311.05 C315.21,310.35 343.13,310.00 396.85,310.00 C476.19,310.00 477.67,310.04 483.53,312.09 C486.82,313.24 490.08,314.66 490.79,315.25 C491.70,316.00 522.17,316.10 593.19,315.59 L 694.30 314.87 L 699.78 318.65 C706.00,322.93 710.30,323.78 726.53,323.92 C733.51,323.97 737.15,323.58 738.53,322.63 C740.09,321.54 749.27,321.16 783.05,320.78 C807.28,320.51 826.65,320.70 828.05,321.21 C829.40,321.71 831.62,323.17 833.00,324.46 C834.57,325.94 841.84,328.90 852.50,332.42 C861.85,335.50 870.62,338.62 872.00,339.36 C877.11,342.09 883.62,343.18 891.10,342.55 C895.17,342.21 903.39,341.69 909.37,341.40 C919.71,340.90 920.35,340.98 922.71,343.19 C924.07,344.46 925.89,346.85 926.75,348.50 C927.60,350.14 931.01,354.30 934.31,357.74 C937.61,361.18 940.82,365.01 941.43,366.25 C942.37,368.14 943.49,368.55 948.51,368.81 C949.42,368.85 950.25,368.82 951.00,368.79 C952.30,368.75 953.36,368.71 954.22,369.10 C958.08,370.84 958.07,381.14 958.01,437.35 C958.01,444.63 958.00,452.68 958.00,461.58 C958.00,541.41 957.83,551.02 956.43,552.43 C955.35,553.50 952.98,554.00 948.92,554.00 L 942.98 554.00 L 939.94 558.95 C938.26,561.67 936.06,564.16 935.04,564.49 C934.02,564.81 931.48,567.64 929.38,570.79 C926.16,575.61 924.72,578.16 922.53,579.51 C920.06,581.04 916.63,581.03 908.63,581.01 C907.53,581.01 906.35,581.01 905.08,581.01 C889.83,581.01 887.66,581.25 878.00,583.93 C868.74,586.51 847.57,594.64 833.75,600.93 L 829.00 603.09 L 829.00 609.49 C829.00,616.30 828.61,616.91 823.59,617.97 C820.99,618.51 820.56,619.01 820.90,621.06 C821.13,622.40 821.35,627.55 821.40,632.50 C821.49,641.03 821.31,641.84 817.92,648.00 C815.57,652.27 812.66,655.79 809.42,658.27 C803.62,662.71 792.95,666.38 788.32,665.52 C785.30,664.97 784.84,665.33 779.24,672.72 C776.00,677.00 770.26,685.00 766.49,690.50 C762.72,696.00 757.80,703.17 755.57,706.43 C748.35,716.95 742.03,723.10 735.27,726.17 ZM 75.75 625.44 C76.16,625.87 111.38,625.91 154.00,625.54 C223.25,624.93 232.94,624.65 245.00,622.91 C252.43,621.84 260.98,620.40 264.00,619.71 L 269.50 618.45 L 269.75 463.03 C269.89,377.55 269.62,307.22 269.15,306.75 C268.69,306.29 264.07,305.06 258.90,304.03 C236.91,299.65 229.82,299.16 177.00,298.46 C148.68,298.08 114.70,297.47 101.50,297.12 C88.30,296.77 76.94,296.64 76.25,296.85 C75.35,297.11 75.00,300.23 75.00,307.97 C75.00,321.63 75.46,322.26 90.53,329.53 C96.76,332.54 102.14,335.00 102.50,335.00 C102.85,335.00 108.76,337.76 115.63,341.14 C129.11,347.78 132.31,350.68 133.30,357.21 C134.12,362.63 132.39,367.62 128.70,370.46 C104.24,389.30 97.86,395.03 90.80,404.50 C78.62,420.83 72.76,438.68 72.73,459.50 C72.69,489.62 86.66,513.79 117.70,537.27 C130.46,546.94 133.00,550.11 133.00,556.39 C133.00,562.10 131.08,566.09 126.75,569.34 C124.96,570.69 114.72,576.16 104.00,581.50 C85.94,590.49 79.12,593.84 76.55,599.21 C75.00,602.46 75.00,606.46 75.00,612.90 L 75.00 613.28 C75.00,619.54 75.34,625.02 75.75,625.44 ZM 316.25 609.34 C316.94,609.62 353.22,609.88 396.88,609.92 C475.69,610.00 481.69,609.78 485.75,606.70 C486.74,605.95 487.00,576.21 487.00,463.90 L 487.00 322.05 L 484.30 320.27 C481.78,318.62 475.91,318.47 399.55,318.00 C354.42,317.73 316.94,317.66 316.25,317.86 C314.41,318.38 314.41,608.60 316.25,609.34 ZM 495.46 602.76 C495.84,603.75 507.73,603.96 552.22,603.76 L 608.50 603.50 L 608.75 463.36 C608.96,351.72 608.75,323.14 607.75,322.86 C607.06,322.66 581.53,322.73 551.00,323.00 L 495.50 323.50 L 495.24 462.50 C495.10,538.95 495.20,602.07 495.46,602.76 ZM 617.37 605.75 C618.04,606.71 626.52,607.00 653.97,607.00 C689.56,607.00 689.72,606.99 693.10,604.71 L 696.50 602.42 L 696.50 325.82 L 694.14 323.91 C691.91,322.11 689.71,322.00 654.40,322.00 L 617.01 322.00 L 616.76 463.25 C616.61,542.51 616.88,605.05 617.37,605.75 ZM 742.61 587.42 C742.94,588.29 743.40,589.00 743.62,589.00 C743.84,589.00 745.09,586.59 746.40,583.64 C749.02,577.71 752.13,574.96 762.00,569.87 L 768.50 566.51 L 786.50 566.51 C804.02,566.50 804.70,566.58 812.00,569.42 C817.18,571.44 820.59,573.53 823.02,576.17 C824.96,578.28 826.87,580.00 827.27,580.00 C827.67,580.00 828.00,523.90 828.00,455.33 C828.00,340.72 827.87,330.51 826.35,328.83 C824.79,327.11 822.17,327.00 784.54,327.00 C754.65,327.00 744.09,327.31 743.20,328.20 C742.28,329.12 742.00,359.23 742.00,457.62 C742.00,528.14 742.27,586.55 742.61,587.42 ZM 835.00 463.56 C835.00,556.00 835.31,592.00 836.10,592.00 C836.70,592.00 838.39,591.34 839.85,590.53 C841.31,589.72 849.92,586.16 859.00,582.62 C872.82,577.22 876.88,576.06 884.00,575.47 C888.67,575.09 893.34,574.33 894.36,573.79 C896.17,572.84 896.21,569.41 895.66,461.65 C895.34,400.52 895.06,350.45 895.04,350.38 C895.02,350.32 890.61,350.05 885.25,349.79 C877.72,349.42 874.48,348.79 871.03,347.02 C868.57,345.76 865.42,344.38 864.03,343.94 C862.64,343.51 859.03,342.19 856.00,341.03 C845.38,336.93 836.58,334.14 835.79,334.63 C835.36,334.90 835.00,392.92 835.00,463.56 ZM 518.00 715.99 L 526.30 722.00 L 728.50 721.98 L 733.58 719.61 C738.71,717.23 743.01,712.76 748.60,704.00 C750.19,701.53 754.43,695.45 758.04,690.50 C761.65,685.55 766.24,679.03 768.24,676.00 C770.24,672.97 772.80,669.51 773.94,668.29 C776.94,665.08 776.49,663.29 772.11,661.05 C767.10,658.50 761.39,651.92 758.38,645.22 C755.41,638.63 755.03,626.46 757.65,622.02 C760.28,617.56 759.05,616.21 752.83,616.71 C749.90,616.95 746.96,617.32 746.31,617.52 C743.54,618.38 741.79,623.22 741.00,632.21 C740.25,640.82 739.70,642.52 733.56,655.38 C729.92,663.02 725.98,671.57 724.81,674.38 C721.79,681.63 718.79,685.34 713.29,688.63 L 708.50 691.50 L 617.00 692.00 C565.67,692.28 524.84,692.89 524.00,693.40 C518.59,696.64 518.00,697.99 518.00,707.17 ZM 277.67 608.33 C278.03,608.70 284.50,609.00 292.04,609.00 C302.37,609.00 306.03,608.66 306.88,607.64 C307.71,606.65 307.94,567.92 307.75,462.43 L 307.50 318.58 L 301.50 317.37 C296.52,316.37 283.05,315.52 278.25,315.90 C277.26,315.98 277.00,345.89 277.00,461.83 C277.00,542.04 277.30,607.97 277.67,608.33 ZM 704.67 600.33 C705.03,600.70 711.50,601.00 719.04,601.00 C729.37,601.00 733.03,600.66 733.88,599.64 C734.71,598.65 734.94,562.51 734.75,464.39 L 734.50 330.50 L 719.25 330.22 L 704.00 329.95 L 704.00 464.81 C704.00,538.98 704.30,599.97 704.67,600.33 ZM 902.48 572.79 C902.84,573.73 905.17,574.00 911.16,573.79 L 919.35 573.50 L 922.09 568.50 C923.60,565.75 927.12,561.47 929.91,559.00 L 935.00 554.50 L 935.00 370.81 L 929.71 364.96 C926.79,361.75 923.37,357.03 922.10,354.49 C919.13,348.54 916.93,347.57 908.87,348.65 L 902.50 349.50 L 902.24 460.50 C902.10,521.55 902.21,572.08 902.48,572.79 ZM 777.20 655.41 C794.22,663.89 815.00,651.02 815.00,631.98 C815.00,624.83 813.41,621.20 807.64,615.17 C801.52,608.76 796.77,606.57 789.00,606.58 C783.90,606.58 781.39,607.16 777.34,609.26 C768.97,613.61 762.00,623.95 762.00,632.01 C762.00,636.79 765.17,644.84 768.65,648.91 C770.50,651.06 774.34,653.99 777.20,655.41 ZM 811.32 608.12 C814.18,610.19 816.36,611.00 818.47,610.80 C821.39,610.51 821.51,610.31 821.83,605.00 C822.01,601.97 821.86,596.23 821.49,592.22 C820.96,586.44 820.29,584.31 818.23,581.86 C812.90,575.52 801.26,572.58 783.89,573.17 C773.11,573.54 770.75,573.94 765.70,576.27 C752.82,582.19 751.13,584.75 750.29,599.57 L 749.70 610.00 L 756.20 610.00 C762.21,610.00 763.22,609.66 769.43,605.58 C783.60,596.27 796.01,597.03 811.32,608.12 ZM 942.46 546.75 C942.96,548.07 946.75,548.42 949.42,547.39 C950.84,546.85 951.00,538.33 951.00,461.34 L 951.00 375.89 L 942.50 376.50 L 942.24 461.00 C942.10,507.48 942.20,546.06 942.46,546.75 Z" fill="rgb(39,39,39)"/>
<path d="M 0.00 512.00 L 0.00 0.00 L 512.00 0.00 L 1024.00 0.00 L 1024.00 512.00 L 1024.00 1024.00 L 512.00 1024.00 L 0.00 1024.00 L 0.00 512.00 ZM 735.27 726.17 C742.03,723.10 748.35,716.95 755.57,706.43 C757.80,703.17 762.72,696.00 766.49,690.50 C770.26,685.00 776.00,677.00 779.24,672.72 C784.84,665.33 785.30,664.97 788.32,665.52 C792.95,666.38 803.62,662.71 809.42,658.27 C812.66,655.79 815.57,652.27 817.92,648.00 C821.31,641.84 821.49,641.03 821.40,632.50 C821.35,627.55 821.13,622.40 820.90,621.06 C820.56,619.01 820.99,618.51 823.59,617.97 C828.61,616.91 829.00,616.30 829.00,609.49 L 829.00 603.09 L 833.75 600.93 C847.57,594.64 868.74,586.51 878.00,583.93 C887.66,581.25 889.83,581.01 905.08,581.01 C923.93,581.00 922.03,581.80 929.38,570.79 C931.48,567.64 934.02,564.81 935.04,564.49 C936.06,564.16 938.26,561.67 939.94,558.95 L 942.98 554.00 L 948.92 554.00 C952.98,554.00 955.35,553.50 956.43,552.43 C957.83,551.02 958.00,541.41 958.00,461.58 C958.00,359.63 958.99,369.35 948.51,368.81 C943.49,368.55 942.37,368.14 941.43,366.25 C940.82,365.01 937.61,361.18 934.31,357.74 C931.01,354.30 927.60,350.14 926.75,348.50 C925.89,346.85 924.07,344.46 922.71,343.19 C920.35,340.98 919.71,340.90 909.37,341.40 C903.39,341.69 895.17,342.21 891.10,342.55 C883.62,343.18 877.11,342.09 872.00,339.36 C870.62,338.62 861.85,335.50 852.50,332.42 C841.84,328.90 834.57,325.94 833.00,324.46 C831.62,323.17 829.40,321.71 828.05,321.21 C826.65,320.70 807.28,320.51 783.05,320.78 C749.27,321.16 740.09,321.54 738.53,322.63 C737.15,323.58 733.51,323.97 726.53,323.92 C710.30,323.78 706.00,322.93 699.78,318.65 L 694.30 314.87 L 593.19 315.59 C522.17,316.10 491.70,316.00 490.79,315.25 C490.08,314.66 486.82,313.24 483.53,312.09 C477.67,310.04 476.19,310.00 396.85,310.00 C343.13,310.00 315.21,310.35 313.38,311.05 C311.49,311.76 309.21,311.77 306.07,311.07 C303.55,310.51 296.14,309.70 289.58,309.27 L 277.67 308.50 L 276.58 305.29 C275.29,301.44 272.41,299.07 269.00,299.03 C266.63,299.01 256.82,297.01 248.86,294.94 C240.74,292.82 220.99,292.04 147.74,290.93 C86.86,290.01 70.67,290.03 69.49,291.01 C67.41,292.73 67.33,318.81 69.40,322.80 C71.85,327.55 74.60,329.26 100.29,342.00 C122.07,352.80 125.63,354.88 126.47,357.32 C127.96,361.66 125.67,364.58 113.96,373.29 C94.36,387.88 83.50,400.41 74.98,418.24 C68.66,431.47 66.05,442.81 66.02,457.12 C65.98,477.20 70.82,494.03 81.24,510.02 C86.70,518.42 100.06,532.27 110.36,540.22 C126.58,552.74 129.28,556.63 125.23,561.63 C124.28,562.80 113.60,568.83 101.50,575.02 C75.67,588.25 74.65,588.91 70.88,594.85 C68.02,599.36 68.00,599.51 68.02,614.95 C68.02,623.50 68.42,631.12 68.90,631.88 C69.64,633.05 82.76,633.09 154.64,632.19 C232.72,631.20 240.46,630.95 251.50,629.06 C273.01,625.39 274.26,624.97 276.26,620.90 L 278.02 617.31 L 290.40 616.68 C297.22,616.33 303.90,615.55 305.26,614.93 C307.19,614.05 308.35,614.13 310.63,615.31 C313.15,616.61 324.25,616.83 392.02,616.93 C473.61,617.04 482.67,616.67 490.21,612.87 C493.71,611.11 497.23,611.00 551.71,611.03 C600.94,611.06 609.79,611.28 611.44,612.53 C613.07,613.77 619.70,614.00 652.85,614.00 L 692.31 614.00 L 698.61 610.48 L 704.90 606.96 L 723.69 607.23 C744.84,607.53 745.65,607.88 740.20,614.15 C735.60,619.45 734.68,621.94 733.98,631.00 C733.44,638.11 732.66,640.89 729.25,648.00 C727.00,652.67 723.06,661.22 720.48,667.00 C715.10,679.08 714.88,679.39 709.51,682.89 L 705.50 685.50 L 614.00 686.00 C523.96,686.49 522.44,686.53 519.00,688.55 C512.63,692.30 511.00,696.00 511.00,706.70 C511.00,716.66 511.94,719.75 516.16,723.70 C522.00,729.14 517.22,728.92 627.27,728.96 L 729.04 729.00 L 735.27 726.17 ZM 522.15 718.99 L 518.00 715.99 L 518.00 707.17 C518.00,697.99 518.59,696.64 524.00,693.40 C524.84,692.89 565.67,692.28 617.00,692.00 L 708.50 691.50 L 713.29 688.63 C718.79,685.34 721.79,681.63 724.81,674.38 C725.98,671.57 729.92,663.02 733.56,655.38 C739.70,642.52 740.25,640.82 741.00,632.21 C741.79,623.22 743.54,618.38 746.31,617.52 C746.96,617.32 749.90,616.95 752.83,616.71 C759.05,616.21 760.28,617.56 757.65,622.02 C755.03,626.46 755.41,638.63 758.38,645.22 C761.39,651.92 767.10,658.50 772.11,661.05 C776.49,663.29 776.94,665.08 773.94,668.29 C772.80,669.51 770.24,672.97 768.24,676.00 C766.24,679.03 761.65,685.55 758.04,690.50 C754.43,695.45 750.19,701.53 748.60,704.00 C743.01,712.76 738.71,717.23 733.58,719.61 L 728.50 721.98 L 627.40 721.99 L 526.30 722.00 L 522.15 718.99 ZM 777.20 655.41 C774.34,653.99 770.50,651.06 768.65,648.91 C765.17,644.84 762.00,636.79 762.00,632.01 C762.00,623.95 768.97,613.61 777.34,609.26 C781.39,607.16 783.90,606.58 789.00,606.58 C796.77,606.57 801.52,608.76 807.64,615.17 C813.41,621.20 815.00,624.83 815.00,631.98 C815.00,651.02 794.22,663.89 777.20,655.41 ZM 75.75 625.44 C75.34,625.02 75.00,619.54 75.00,613.28 C75.00,595.81 74.78,596.05 104.00,581.50 C114.72,576.16 124.96,570.69 126.75,569.34 C131.08,566.09 133.00,562.10 133.00,556.39 C133.00,550.11 130.46,546.94 117.70,537.27 C86.66,513.79 72.69,489.62 72.73,459.50 C72.76,438.68 78.62,420.83 90.80,404.50 C97.86,395.03 104.24,389.30 128.70,370.46 C132.39,367.62 134.12,362.63 133.30,357.21 C132.31,350.68 129.11,347.78 115.63,341.14 C108.76,337.76 102.85,335.00 102.50,335.00 C102.14,335.00 96.76,332.54 90.53,329.53 C75.46,322.26 75.00,321.63 75.00,307.97 C75.00,300.23 75.35,297.11 76.25,296.85 C76.94,296.64 88.30,296.77 101.50,297.12 C114.70,297.47 148.68,298.08 177.00,298.46 C229.82,299.16 236.91,299.65 258.90,304.03 C264.07,305.06 268.69,306.29 269.15,306.75 C269.62,307.22 269.89,377.55 269.75,463.03 L 269.50 618.45 L 264.00 619.71 C260.98,620.40 252.43,621.84 245.00,622.91 C232.94,624.65 223.25,624.93 154.00,625.54 C111.38,625.91 76.16,625.87 75.75,625.44 ZM 811.32 608.12 C796.01,597.03 783.60,596.27 769.43,605.58 C763.22,609.66 762.21,610.00 756.20,610.00 L 749.70 610.00 L 750.29 599.57 C751.13,584.75 752.82,582.19 765.70,576.27 C770.75,573.94 773.11,573.54 783.89,573.17 C801.26,572.58 812.90,575.52 818.23,581.86 C820.29,584.31 820.96,586.44 821.49,592.22 C821.86,596.23 822.01,601.97 821.83,605.00 C821.51,610.31 821.39,610.51 818.47,610.80 C816.36,611.00 814.18,610.19 811.32,608.12 ZM 316.25 609.34 C314.41,608.60 314.41,318.38 316.25,317.86 C316.94,317.66 354.42,317.73 399.55,318.00 C475.91,318.47 481.78,318.62 484.30,320.27 L 487.00 322.05 L 487.00 463.90 C487.00,576.21 486.74,605.95 485.75,606.70 C481.69,609.78 475.69,610.00 396.88,609.92 C353.22,609.88 316.94,609.62 316.25,609.34 ZM 277.67 608.33 C277.30,607.97 277.00,542.04 277.00,461.83 C277.00,345.89 277.26,315.98 278.25,315.90 C283.05,315.52 296.52,316.37 301.50,317.37 L 307.50 318.58 L 307.75 462.43 C307.94,567.92 307.71,606.65 306.88,607.64 C306.03,608.66 302.37,609.00 292.04,609.00 C284.50,609.00 278.03,608.70 277.67,608.33 ZM 617.37 605.75 C616.88,605.05 616.61,542.51 616.76,463.25 L 617.01 322.00 L 654.40 322.00 C689.71,322.00 691.91,322.11 694.14,323.91 L 696.50 325.82 L 696.50 464.12 L 696.50 602.42 L 693.10 604.71 C689.72,606.99 689.56,607.00 653.97,607.00 C626.52,607.00 618.04,606.71 617.37,605.75 ZM 495.46 602.76 C495.20,602.07 495.10,538.95 495.24,462.50 L 495.50 323.50 L 551.00 323.00 C581.53,322.73 607.06,322.66 607.75,322.86 C608.75,323.14 608.96,351.72 608.75,463.36 L 608.50 603.50 L 552.22 603.76 C507.73,603.96 495.84,603.75 495.46,602.76 ZM 704.67 600.33 C704.30,599.97 704.00,538.98 704.00,464.81 L 704.00 329.95 L 719.25 330.22 L 734.50 330.50 L 734.75 464.39 C734.94,562.51 734.71,598.65 733.88,599.64 C733.03,600.66 729.37,601.00 719.04,601.00 C711.50,601.00 705.03,600.70 704.67,600.33 ZM 835.00 463.56 C835.00,392.92 835.36,334.90 835.79,334.63 C836.58,334.14 845.38,336.93 856.00,341.03 C859.03,342.19 862.64,343.51 864.03,343.94 C865.42,344.38 868.57,345.76 871.03,347.02 C874.48,348.79 877.72,349.42 885.25,349.79 C890.61,350.05 895.02,350.32 895.04,350.38 C895.06,350.45 895.34,400.52 895.66,461.65 C896.21,569.41 896.17,572.84 894.36,573.79 C893.34,574.33 888.67,575.09 884.00,575.47 C876.88,576.06 872.82,577.22 859.00,582.62 C849.92,586.16 841.31,589.72 839.85,590.53 C838.39,591.34 836.70,592.00 836.10,592.00 C835.31,592.00 835.00,556.00 835.00,463.56 ZM 742.61 587.42 C742.27,586.55 742.00,528.14 742.00,457.62 C742.00,359.23 742.28,329.12 743.20,328.20 C744.09,327.31 754.65,327.00 784.54,327.00 C822.17,327.00 824.79,327.11 826.35,328.83 C827.87,330.51 828.00,340.72 828.00,455.33 C828.00,523.90 827.67,580.00 827.27,580.00 C826.87,580.00 824.96,578.28 823.02,576.17 C820.59,573.53 817.18,571.44 812.00,569.42 C804.70,566.58 804.02,566.50 786.50,566.51 L 768.50 566.51 L 762.00 569.87 C752.13,574.96 749.02,577.71 746.40,583.64 C745.09,586.59 743.84,589.00 743.62,589.00 C743.40,589.00 742.94,588.29 742.61,587.42 ZM 902.48 572.79 C902.21,572.08 902.10,521.55 902.24,460.50 L 902.50 349.50 L 908.87 348.65 C916.93,347.57 919.13,348.54 922.10,354.49 C923.37,357.03 926.79,361.75 929.71,364.96 L 935.00 370.81 L 935.00 462.66 L 935.00 554.50 L 929.91 559.00 C927.12,561.47 923.60,565.75 922.09,568.50 L 919.35 573.50 L 911.16 573.79 C905.17,574.00 902.84,573.73 902.48,572.79 ZM 942.46 546.75 C942.20,546.06 942.10,507.48 942.24,461.00 L 942.50 376.50 L 946.75 376.19 L 951.00 375.89 L 951.00 461.34 C951.00,538.33 950.84,546.85 949.42,547.39 C946.75,548.42 942.96,548.07 942.46,546.75 Z" fill="rgb(253,253,253)"/>
</g>
</svg>